<svg width="42" height="44" viewBox="0 0 42 44" fill="none" xmlns="http://www.w3.org/2000/svg">
<path fill-rule="evenodd" clip-rule="evenodd" d="M19.1169 22.0863H14.0086C12.3523 22.0815 11.0101 20.8149 10.9999 19.246V9.62061C10.9999 9.09561 11.2502 8.59964 11.6742 8.26456L12.5771 7.63069C12.9065 7.30045 12.9359 6.79481 12.6562 6.42586C12.3727 6.05811 11.853 5.93473 11.42 6.12828L10.5018 6.78029C9.56829 7.46134 9.02043 8.50529 9 9.62061V19.2557C9.00511 21.8734 11.2451 23.9952 14.0086 24H19.1169C19.6699 24 20.1143 23.5742 20.1143 23.0552C20.1143 22.5302 19.6699 22.1057 19.1169 22.1057V22.0863Z" fill="#303030"/>
<path fill-rule="evenodd" clip-rule="evenodd" d="M33.0002 9.59786C32.9849 8.49584 32.4511 7.4519 31.5431 6.75754L23.8718 0.964413C22.1848 -0.321471 19.78 -0.321471 18.0943 0.964413L15.6653 2.63739C15.2056 2.94828 15.1009 3.54949 15.4304 3.98376C15.7598 4.41319 16.3933 4.51239 16.8517 4.2015L19.3165 2.45715C20.2845 1.7011 21.6816 1.7011 22.6496 2.45715L30.3209 8.25028C30.7654 8.58657 31.0246 9.08738 31.0348 9.62084V19.2559C31.0348 20.8248 29.6875 22.0962 28.0363 22.0962H25.7567C25.523 22.0962 25.3378 21.916 25.3378 21.6946V17.3519C25.3378 15.9668 24.1553 14.8418 22.6943 14.8382H19.3612C18.6575 14.8382 17.9845 15.1019 17.4864 15.5749C16.9871 16.0478 16.7074 16.6853 16.7074 17.3519V19.0152C16.7074 19.5341 17.157 19.9599 17.7048 19.9599C18.2591 19.9599 18.7086 19.5341 18.7086 19.0152V17.3519C18.7035 17.1861 18.7673 17.0301 18.8925 16.9115C19.0125 16.799 19.1773 16.7325 19.3509 16.7325H22.6841C23.0378 16.7325 23.3277 17.0071 23.3277 17.3422V21.6946C23.3328 22.9648 24.4196 23.9906 25.7567 23.9906H27.9762C30.7449 23.9906 32.9849 21.864 32.9849 19.2462L33.0002 9.59786Z" fill="#303030"/>
<path d="M0.04 35.5C0.04 34.124 0.304 33.04 0.832 32.248C1.368 31.456 2.228 31.06 3.412 31.06C4.596 31.06 5.452 31.456 5.98 32.248C6.516 33.04 6.784 34.124 6.784 35.5C6.784 36.892 6.516 37.984 5.98 38.776C5.452 39.568 4.596 39.964 3.412 39.964C2.228 39.964 1.368 39.568 0.832 38.776C0.304 37.984 0.04 36.892 0.04 35.5ZM4.768 35.5C4.768 34.692 4.68 34.072 4.504 33.64C4.328 33.2 3.964 32.98 3.412 32.98C2.86 32.98 2.496 33.2 2.32 33.64C2.144 34.072 2.056 34.692 2.056 35.5C2.056 36.044 2.088 36.496 2.152 36.856C2.216 37.208 2.344 37.496 2.536 37.72C2.736 37.936 3.028 38.044 3.412 38.044C3.796 38.044 4.084 37.936 4.276 37.72C4.476 37.496 4.608 37.208 4.672 36.856C4.736 36.496 4.768 36.044 4.768 35.5ZM9.03213 40.096C8.67213 40.096 8.37613 39.992 8.14413 39.784C7.92013 39.568 7.80813 39.304 7.80813 38.992C7.80813 38.672 7.92013 38.404 8.14413 38.188C8.37613 37.972 8.67213 37.864 9.03213 37.864C9.38413 37.864 9.67213 37.972 9.89613 38.188C10.1281 38.404 10.2441 38.672 10.2441 38.992C10.2441 39.304 10.1281 39.568 9.89613 39.784C9.67213 39.992 9.38413 40.096 9.03213 40.096ZM15.5868 33.604C15.5228 33.308 15.4108 33.088 15.2508 32.944C15.0908 32.792 14.8628 32.716 14.5668 32.716C14.1108 32.716 13.7828 32.916 13.5828 33.316C13.3828 33.708 13.2788 34.332 13.2708 35.188C13.4468 34.908 13.6988 34.688 14.0268 34.528C14.3628 34.368 14.7308 34.288 15.1308 34.288C15.9148 34.288 16.5428 34.536 17.0148 35.032C17.4948 35.528 17.7348 36.22 17.7348 37.108C17.7348 37.692 17.6148 38.204 17.3748 38.644C17.1428 39.084 16.7988 39.428 16.3428 39.676C15.8948 39.924 15.3628 40.048 14.7468 40.048C13.5148 40.048 12.6588 39.664 12.1788 38.896C11.6988 38.12 11.4588 37.008 11.4588 35.56C11.4588 34.04 11.7108 32.912 12.2148 32.176C12.7268 31.432 13.5428 31.06 14.6628 31.06C15.2628 31.06 15.7668 31.18 16.1748 31.42C16.5908 31.652 16.9028 31.96 17.1108 32.344C17.3268 32.728 17.4548 33.148 17.4948 33.604H15.5868ZM14.6388 35.908C14.2948 35.908 14.0068 36.012 13.7748 36.22C13.5508 36.42 13.4388 36.708 13.4388 37.084C13.4388 37.468 13.5428 37.768 13.7508 37.984C13.9668 38.2 14.2708 38.308 14.6628 38.308C15.0148 38.308 15.2908 38.204 15.4908 37.996C15.6988 37.78 15.8028 37.488 15.8028 37.12C15.8028 36.744 15.7028 36.448 15.5028 36.232C15.3028 36.016 15.0148 35.908 14.6388 35.908ZM26.5264 40L23.6944 36.28V40H21.6424V31.576H23.6944V35.272L26.5024 31.576H28.9144L25.6504 35.704L29.0344 40H26.5264ZM38.5536 33.232C39.3856 33.232 40.0456 33.484 40.5336 33.988C41.0296 34.492 41.2776 35.192 41.2776 36.088V40H39.2376V36.364C39.2376 35.932 39.1216 35.6 38.8896 35.368C38.6656 35.128 38.3536 35.008 37.9536 35.008C37.5536 35.008 37.2376 35.128 37.0056 35.368C36.7816 35.6 36.6696 35.932 36.6696 36.364V40H34.6296V36.364C34.6296 35.932 34.5136 35.6 34.2816 35.368C34.0576 35.128 33.7456 35.008 33.3456 35.008C32.9456 35.008 32.6296 35.128 32.3976 35.368C32.1736 35.6 32.0616 35.932 32.0616 36.364V40H30.0096V33.304H32.0616V34.144C32.2696 33.864 32.5416 33.644 32.8776 33.484C33.2136 33.316 33.5936 33.232 34.0176 33.232C34.5216 33.232 34.9696 33.34 35.3616 33.556C35.7616 33.772 36.0736 34.08 36.2976 34.48C36.5296 34.112 36.8456 33.812 37.2456 33.58C37.6456 33.348 38.0816 33.232 38.5536 33.232Z" fill="#303030"/>
</svg>
