<svg width="105" height="48" viewBox="0 0 105 48" fill="none" xmlns="http://www.w3.org/2000/svg">
<path opacity="0.4" d="M51.1666 2.66699C57.6607 2.66699 63.1666 8.04429 63.1666 14.568C63.1666 15.0223 63.1403 15.4674 63.0897 15.9033C61.958 15.1142 60.5811 14.667 59.1668 14.667C57.9542 14.667 56.7692 14.9957 55.7427 15.5867C55.8021 15.2893 55.8333 14.9818 55.8333 14.667C55.8333 12.0897 53.744 10.0003 51.1666 10.0003C48.5893 10.0003 46.5 12.0897 46.5 14.667C46.5 17.2443 48.5893 19.3337 51.1666 19.3337C51.7586 19.3337 52.3249 19.2234 52.846 19.0223C51.7146 22.1776 53.5369 24.6264 55.719 26.7706C54.6333 27.5881 53.5082 28.3327 52.4026 29.0092C52.026 29.2219 51.6 29.3337 51.1666 29.3337C50.7332 29.3337 50.3073 29.2219 49.9306 29.0092C44.7718 25.8157 39.1666 21.2185 39.1666 14.568C39.1666 8.04429 44.6725 2.66699 51.1666 2.66699Z" fill="#00A0DC"/>
<path d="M51.1683 1.66699C56.9058 1.66706 62.8934 5.92062 64.1448 11.792C64.2597 12.332 63.9153 12.8634 63.3753 12.9785C62.8352 13.0936 62.3039 12.7482 62.1888 12.208C61.1558 7.3626 56.0708 3.66706 51.1683 3.66699C46.8226 3.66699 42.7065 6.24686 41.0013 10.2324C39.4366 13.8901 40.2282 16.9496 42.098 19.7754C43.7041 22.2027 46.044 24.3706 48.3519 26.5078C48.8032 26.9258 49.2535 27.3424 49.6966 27.7598C50.0863 28.1242 50.6138 28.333 51.1683 28.333C51.674 28.333 52.1576 28.1592 52.5345 27.8516C52.9623 27.5026 53.5926 27.5664 53.9417 27.9941C54.2908 28.422 54.2269 29.0522 53.7991 29.4014C53.0612 30.0037 52.1297 30.333 51.1683 30.333C50.1146 30.333 49.0961 29.9374 48.3294 29.2197L48.3265 29.2168C47.9125 28.8268 47.4818 28.4289 47.0423 28.0225C44.7369 25.8905 42.182 23.5267 40.43 20.8789C38.2931 17.6493 37.2665 13.8782 39.1624 9.44629C41.1996 4.68409 46.0667 1.66699 51.1683 1.66699ZM59.1673 13.667C62.1632 13.6672 65.0355 15.4192 66.2435 18.2148C67.3721 20.8269 66.7487 23.0673 65.5023 24.9365C64.4854 26.4614 62.9978 27.8178 61.7054 28.9961C61.4777 29.2036 61.2561 29.4061 61.0443 29.6025C60.5342 30.0754 59.8605 30.3329 59.1673 30.333C58.474 30.333 57.7996 30.0755 57.2894 29.6025L57.2874 29.6006C57.0639 29.3921 56.8295 29.1769 56.5882 28.9561C55.3087 27.7853 53.8398 26.4416 52.8333 24.9355C51.5854 23.0682 50.9602 20.83 52.0901 18.2148C53.2982 15.419 56.1712 13.667 59.1673 13.667ZM59.1673 15.667C56.9154 15.667 54.7969 16.9933 53.9261 19.0088C53.1339 20.8426 53.5188 22.3613 54.4964 23.8242C55.3556 25.1099 56.6072 26.2586 57.889 27.4346C58.1423 27.6669 58.3969 27.9009 58.6497 28.1367C58.7819 28.2589 58.9674 28.333 59.1673 28.333C59.3673 28.3329 59.5518 28.2581 59.6839 28.1357C59.9207 27.9162 60.1594 27.6984 60.3968 27.4814C61.6965 26.2935 62.9696 25.1297 63.8382 23.8271C64.8151 22.3622 65.1987 20.8402 64.4075 19.0088C63.5368 16.9934 61.419 15.6672 59.1673 15.667ZM59.179 20C59.9151 20.0002 60.5118 20.5969 60.512 21.333C60.512 22.0693 59.9153 22.6668 59.179 22.667H59.1663C58.4301 22.6668 57.8333 22.0692 57.8333 21.333C57.8335 20.5969 58.4302 20.0002 59.1663 20H59.179ZM51.1663 9C53.2288 9 55.0337 10.1021 56.0237 11.7451C56.3088 12.2181 56.1559 12.8331 55.6829 13.1182C55.2099 13.4032 54.5949 13.2504 54.3099 12.7773C53.6666 11.7101 52.4988 11 51.1663 11C49.1415 11.0002 47.5003 12.6421 47.5003 14.667C47.5004 16.128 48.355 17.3919 49.596 17.9814C50.0946 18.2185 50.3066 18.8147 50.0696 19.3135C49.8326 19.8122 49.2364 20.024 48.7376 19.7871C46.8256 18.8787 45.5004 16.9288 45.5003 14.667C45.5003 11.5375 48.0369 9.00023 51.1663 9Z" fill="#095BA8"/>
<path d="M4.41225 35.624C5.29225 35.624 6.06425 35.796 6.72825 36.14C7.40025 36.484 7.91625 36.976 8.27625 37.616C8.64425 38.248 8.82825 38.984 8.82825 39.824C8.82825 40.664 8.64425 41.4 8.27625 42.032C7.91625 42.656 7.40025 43.14 6.72825 43.484C6.06425 43.828 5.29225 44 4.41225 44H1.48425V35.624H4.41225ZM4.35225 42.572C5.23225 42.572 5.91225 42.332 6.39225 41.852C6.87225 41.372 7.11225 40.696 7.11225 39.824C7.11225 38.952 6.87225 38.272 6.39225 37.784C5.91225 37.288 5.23225 37.04 4.35225 37.04H3.16425V42.572H4.35225ZM16.2658 40.532C16.2658 40.772 16.2498 40.988 16.2178 41.18H11.3578C11.3978 41.66 11.5658 42.036 11.8618 42.308C12.1578 42.58 12.5218 42.716 12.9538 42.716C13.5778 42.716 14.0218 42.448 14.2858 41.912H16.0978C15.9058 42.552 15.5378 43.08 14.9938 43.496C14.4498 43.904 13.7818 44.108 12.9898 44.108C12.3498 44.108 11.7738 43.968 11.2618 43.688C10.7578 43.4 10.3618 42.996 10.0738 42.476C9.79381 41.956 9.65381 41.356 9.65381 40.676C9.65381 39.988 9.79381 39.384 10.0738 38.864C10.3538 38.344 10.7458 37.944 11.2498 37.664C11.7538 37.384 12.3338 37.244 12.9898 37.244C13.6218 37.244 14.1858 37.38 14.6818 37.652C15.1858 37.924 15.5738 38.312 15.8458 38.816C16.1258 39.312 16.2658 39.884 16.2658 40.532ZM14.5258 40.052C14.5178 39.62 14.3618 39.276 14.0578 39.02C13.7538 38.756 13.3818 38.624 12.9418 38.624C12.5258 38.624 12.1738 38.752 11.8858 39.008C11.6058 39.256 11.4338 39.604 11.3698 40.052H14.5258ZM19.1721 35.12V44H17.4921V35.12H19.1721ZM21.6839 36.56C21.3879 36.56 21.1399 36.468 20.9399 36.284C20.7479 36.092 20.6519 35.856 20.6519 35.576C20.6519 35.296 20.7479 35.064 20.9399 34.88C21.1399 34.688 21.3879 34.592 21.6839 34.592C21.9799 34.592 22.2239 34.688 22.4159 34.88C22.6159 35.064 22.7159 35.296 22.7159 35.576C22.7159 35.856 22.6159 36.092 22.4159 36.284C22.2239 36.468 21.9799 36.56 21.6839 36.56ZM22.5119 37.352V44H20.8319V37.352H22.5119ZM26.9438 42.452L28.6238 37.352H30.4118L27.9518 44H25.9118L23.4638 37.352H25.2638L26.9438 42.452ZM37.5353 40.532C37.5353 40.772 37.5193 40.988 37.4873 41.18H32.6273C32.6673 41.66 32.8353 42.036 33.1313 42.308C33.4273 42.58 33.7913 42.716 34.2233 42.716C34.8473 42.716 35.2913 42.448 35.5553 41.912H37.3673C37.1753 42.552 36.8073 43.08 36.2633 43.496C35.7193 43.904 35.0513 44.108 34.2593 44.108C33.6193 44.108 33.0433 43.968 32.5313 43.688C32.0273 43.4 31.6313 42.996 31.3433 42.476C31.0633 41.956 30.9233 41.356 30.9233 40.676C30.9233 39.988 31.0633 39.384 31.3433 38.864C31.6233 38.344 32.0153 37.944 32.5193 37.664C33.0233 37.384 33.6033 37.244 34.2593 37.244C34.8913 37.244 35.4553 37.38 35.9513 37.652C36.4553 37.924 36.8433 38.312 37.1153 38.816C37.3953 39.312 37.5353 39.884 37.5353 40.532ZM35.7953 40.052C35.7873 39.62 35.6313 39.276 35.3273 39.02C35.0233 38.756 34.6513 38.624 34.2113 38.624C33.7953 38.624 33.4433 38.752 33.1553 39.008C32.8753 39.256 32.7033 39.604 32.6393 40.052H35.7953ZM40.4416 38.384C40.6576 38.032 40.9376 37.756 41.2816 37.556C41.6336 37.356 42.0336 37.256 42.4816 37.256V39.02H42.0376C41.5096 39.02 41.1096 39.144 40.8376 39.392C40.5736 39.64 40.4416 40.072 40.4416 40.688V44H38.7616V37.352H40.4416V38.384ZM49.9732 37.352L45.8572 47.144H44.0692L45.5092 43.832L42.8452 37.352H44.7292L46.4452 41.996L48.1852 37.352H49.9732ZM55.4182 42.668H58.1782V44H53.7382V35.624H55.4182V42.668ZM62.198 44.108C61.558 44.108 60.982 43.968 60.47 43.688C59.958 43.4 59.554 42.996 59.258 42.476C58.97 41.956 58.826 41.356 58.826 40.676C58.826 39.996 58.974 39.396 59.27 38.876C59.574 38.356 59.986 37.956 60.506 37.676C61.026 37.388 61.606 37.244 62.246 37.244C62.886 37.244 63.466 37.388 63.986 37.676C64.506 37.956 64.914 38.356 65.21 38.876C65.514 39.396 65.666 39.996 65.666 40.676C65.666 41.356 65.51 41.956 65.198 42.476C64.894 42.996 64.478 43.4 63.95 43.688C63.43 43.968 62.846 44.108 62.198 44.108ZM62.198 42.644C62.502 42.644 62.786 42.572 63.05 42.428C63.322 42.276 63.538 42.052 63.698 41.756C63.858 41.46 63.938 41.1 63.938 40.676C63.938 40.044 63.77 39.56 63.434 39.224C63.106 38.88 62.702 38.708 62.222 38.708C61.742 38.708 61.338 38.88 61.01 39.224C60.69 39.56 60.53 40.044 60.53 40.676C60.53 41.308 60.686 41.796 60.998 42.14C61.318 42.476 61.718 42.644 62.198 42.644ZM66.4663 40.676C66.4663 39.988 66.6063 39.388 66.8863 38.876C67.1663 38.356 67.5543 37.956 68.0503 37.676C68.5463 37.388 69.1143 37.244 69.7543 37.244C70.5783 37.244 71.2583 37.452 71.7943 37.868C72.3383 38.276 72.7023 38.852 72.8863 39.596H71.0743C70.9783 39.308 70.8143 39.084 70.5823 38.924C70.3583 38.756 70.0783 38.672 69.7423 38.672C69.2623 38.672 68.8823 38.848 68.6023 39.2C68.3223 39.544 68.1823 40.036 68.1823 40.676C68.1823 41.308 68.3223 41.8 68.6023 42.152C68.8823 42.496 69.2623 42.668 69.7423 42.668C70.4223 42.668 70.8663 42.364 71.0743 41.756H72.8863C72.7023 42.476 72.3383 43.048 71.7943 43.472C71.2503 43.896 70.5703 44.108 69.7543 44.108C69.1143 44.108 68.5463 43.968 68.0503 43.688C67.5543 43.4 67.1663 43 66.8863 42.488C66.6063 41.968 66.4663 41.364 66.4663 40.676ZM73.6851 40.652C73.6851 39.98 73.8171 39.384 74.0811 38.864C74.3531 38.344 74.7171 37.944 75.1731 37.664C75.6371 37.384 76.1531 37.244 76.7211 37.244C77.2171 37.244 77.6491 37.344 78.0171 37.544C78.3931 37.744 78.6931 37.996 78.9171 38.3V37.352H80.6091V44H78.9171V43.028C78.7011 43.34 78.4011 43.6 78.0171 43.808C77.6411 44.008 77.2051 44.108 76.7091 44.108C76.1491 44.108 75.6371 43.964 75.1731 43.676C74.7171 43.388 74.3531 42.984 74.0811 42.464C73.8171 41.936 73.6851 41.332 73.6851 40.652ZM78.9171 40.676C78.9171 40.268 78.8371 39.92 78.6771 39.632C78.5171 39.336 78.3011 39.112 78.0291 38.96C77.7571 38.8 77.4651 38.72 77.1531 38.72C76.8411 38.72 76.5531 38.796 76.2891 38.948C76.0251 39.1 75.8091 39.324 75.6411 39.62C75.4811 39.908 75.4011 40.252 75.4011 40.652C75.4011 41.052 75.4811 41.404 75.6411 41.708C75.8091 42.004 76.0251 42.232 76.2891 42.392C76.5611 42.552 76.8491 42.632 77.1531 42.632C77.4651 42.632 77.7571 42.556 78.0291 42.404C78.3011 42.244 78.5171 42.02 78.6771 41.732C78.8371 41.436 78.9171 41.084 78.9171 40.676ZM84.2059 38.732V41.948C84.2059 42.172 84.2579 42.336 84.3619 42.44C84.4739 42.536 84.6579 42.584 84.9139 42.584H85.6939V44H84.6379C83.2219 44 82.5139 43.312 82.5139 41.936V38.732H81.7219V37.352H82.5139V35.708H84.2059V37.352H85.6939V38.732H84.2059ZM87.7542 36.56C87.4582 36.56 87.2102 36.468 87.0102 36.284C86.8182 36.092 86.7222 35.856 86.7222 35.576C86.7222 35.296 86.8182 35.064 87.0102 34.88C87.2102 34.688 87.4582 34.592 87.7542 34.592C88.0502 34.592 88.2942 34.688 88.4862 34.88C88.6862 35.064 88.7862 35.296 88.7862 35.576C88.7862 35.856 88.6862 36.092 88.4862 36.284C88.2942 36.468 88.0502 36.56 87.7542 36.56ZM88.5822 37.352V44H86.9022V37.352H88.5822ZM93.1941 44.108C92.5541 44.108 91.9781 43.968 91.4661 43.688C90.9541 43.4 90.5501 42.996 90.2541 42.476C89.9661 41.956 89.8221 41.356 89.8221 40.676C89.8221 39.996 89.9701 39.396 90.2661 38.876C90.5701 38.356 90.9821 37.956 91.5021 37.676C92.0221 37.388 92.6021 37.244 93.2421 37.244C93.8821 37.244 94.4621 37.388 94.9821 37.676C95.5021 37.956 95.9101 38.356 96.2061 38.876C96.5101 39.396 96.6621 39.996 96.6621 40.676C96.6621 41.356 96.5061 41.956 96.1941 42.476C95.8901 42.996 95.4741 43.4 94.9461 43.688C94.4261 43.968 93.8421 44.108 93.1941 44.108ZM93.1941 42.644C93.4981 42.644 93.7821 42.572 94.0461 42.428C94.3181 42.276 94.5341 42.052 94.6941 41.756C94.8541 41.46 94.9341 41.1 94.9341 40.676C94.9341 40.044 94.7661 39.56 94.4301 39.224C94.1021 38.88 93.6981 38.708 93.2181 38.708C92.7381 38.708 92.3341 38.88 92.0061 39.224C91.6861 39.56 91.5261 40.044 91.5261 40.676C91.5261 41.308 91.6821 41.796 91.9941 42.14C92.3141 42.476 92.7141 42.644 93.1941 42.644ZM101.578 37.256C102.37 37.256 103.01 37.508 103.498 38.012C103.986 38.508 104.23 39.204 104.23 40.1V44H102.55V40.328C102.55 39.8 102.418 39.396 102.154 39.116C101.89 38.828 101.53 38.684 101.074 38.684C100.61 38.684 100.242 38.828 99.9704 39.116C99.7064 39.396 99.5744 39.8 99.5744 40.328V44H97.8944V37.352H99.5744V38.18C99.7984 37.892 100.082 37.668 100.426 37.508C100.778 37.34 101.162 37.256 101.578 37.256Z" fill="#095BA8"/>
</svg>
