<svg width="24" height="24" viewBox="0 0 24 24" fill="none" xmlns="http://www.w3.org/2000/svg">
<path d="M15.5417 1.25C16.4758 1.24999 17.2374 1.24998 17.8572 1.31738C18.5042 1.38778 19.066 1.53738 19.5798 1.87988C20.0938 2.2225 20.4485 2.68355 20.7625 3.25391C21.0631 3.80012 21.3554 4.50309 21.7146 5.36523L22.6882 7.70215C22.6896 7.70536 22.6908 7.70868 22.6921 7.71191L22.7185 7.78418C22.7268 7.81162 22.732 7.83951 22.7371 7.86719C22.7448 7.91035 22.7498 7.95462 22.7498 8L22.7498 10.5C22.7498 10.9142 22.414 11.25 21.9998 11.25C21.5855 11.25 21.2498 10.9142 21.2498 10.5V8.75L2.74976 8.75L2.74976 13.4287C2.74976 15.4707 2.75125 16.9241 2.90503 18.0273C3.05544 19.1061 3.33846 19.7388 3.82202 20.2051C4.30938 20.675 4.9763 20.9529 6.10815 21.0996C7.25895 21.2488 8.77295 21.25 10.8884 21.25H12.4998C12.914 21.25 13.2498 21.5858 13.2498 22C13.2498 22.4142 12.914 22.75 12.4998 22.75H10.8337C8.78547 22.75 7.1742 22.75 5.91577 22.5869C4.62717 22.4199 3.59537 22.0695 2.78101 21.2842C1.96293 20.4952 1.59469 19.4896 1.41968 18.2344C1.2498 17.0156 1.24974 15.4577 1.24976 13.4873L1.24976 8C1.24976 7.95468 1.25377 7.91029 1.26147 7.86719C1.2665 7.83938 1.27366 7.81175 1.28198 7.78418L1.30737 7.71191C1.30867 7.7088 1.30896 7.70525 1.3103 7.70215L2.28491 5.36523C2.64415 4.50302 2.93742 3.80015 3.23804 3.25391C3.55188 2.68371 3.9059 2.22244 4.41968 1.87988C4.93364 1.53724 5.49604 1.38777 6.14331 1.31738C6.76314 1.25 7.52472 1.24999 8.45874 1.25L15.5417 1.25ZM17.9998 11.25C20.6301 11.25 22.7496 13.4017 22.7498 16.04C22.7498 17.5589 22.135 18.7473 20.9968 19.7559C20.3613 20.3191 19.5758 21.3127 19.0564 22.1074C18.8578 22.4114 18.5045 22.75 17.9929 22.75C17.473 22.7499 17.1219 22.4019 16.9304 22.0879C16.4534 21.3055 15.6471 20.3269 15.0027 19.7559C13.8645 18.7473 13.2498 17.5589 13.2498 16.04C13.2499 13.4017 15.3694 11.25 17.9998 11.25ZM17.9998 12.75C16.212 12.75 14.7499 14.2159 14.7498 16.04C14.7498 17.0729 15.1353 17.8692 15.9968 18.6328C16.6722 19.2313 17.4536 20.1562 18.0046 20.9834C18.5571 20.1829 19.3177 19.2398 20.0027 18.6328C20.8643 17.8692 21.2498 17.0729 21.2498 16.04C21.2496 14.2159 19.7875 12.75 17.9998 12.75ZM18.0085 15C18.5608 15 19.0085 15.4477 19.0085 16C19.0085 16.5523 18.5608 17 18.0085 17H17.9998C17.4475 17 16.9998 16.5523 16.9998 16C16.9998 15.4477 17.4475 15 17.9998 15H18.0085ZM11.9998 11.25C12.414 11.25 12.7498 11.5858 12.7498 12C12.7498 12.4142 12.414 12.75 11.9998 12.75L9.99976 12.75C9.58554 12.75 9.24976 12.4142 9.24976 12C9.24976 11.5858 9.58554 11.25 9.99976 11.25L11.9998 11.25ZM8.49976 2.75C7.51417 2.75 6.83471 2.75105 6.30542 2.80859C5.79431 2.86417 5.49352 2.96672 5.25171 3.12793C5.00995 3.28914 4.79935 3.5272 4.55151 3.97754C4.29486 4.44394 4.03305 5.07088 3.65405 5.98047L3.12476 7.25L11.2498 7.25L11.2498 2.75L8.49976 2.75ZM12.7498 7.25L20.8748 7.25L20.3464 5.98047C19.9674 5.07066 19.7047 4.444 19.448 3.97754C19.2001 3.52712 18.9896 3.28914 18.7478 3.12793C18.5061 2.96682 18.2058 2.86417 17.6951 2.80859C17.1657 2.75103 16.4855 2.75 15.4998 2.75L12.7498 2.75L12.7498 7.25Z" fill="white"/>
</svg>
