<svg width="32" height="32" viewBox="0 0 32 32" fill="none" xmlns="http://www.w3.org/2000/svg">
<path d="M13.2422 1.68652C13.7834 1.57666 14.311 1.92653 14.4209 2.46777C14.5306 3.00895 14.1808 3.53663 13.6396 3.64648C7.94924 4.80176 3.66699 9.8346 3.66699 15.8652C3.667 16.3967 3.69912 16.9206 3.76367 17.4346C3.76998 17.4315 3.77686 17.4289 3.7832 17.4258C4.1464 17.2461 4.57931 17.0313 5.0498 16.8457C5.56355 16.643 6.14399 16.8954 6.34668 17.4092C6.54931 17.9228 6.29772 18.5033 5.78418 18.7061C5.3987 18.8581 5.05432 19.0282 4.69434 19.2061C4.61041 19.2475 4.52584 19.2898 4.43945 19.332C4.35558 19.373 4.26818 19.3999 4.18066 19.416C5.70988 24.5719 10.4827 28.333 16.1348 28.333C19.4801 28.333 22.5162 27.0131 24.7559 24.8682C24.5178 24.7325 24.3361 24.5008 24.2734 24.2119C24.1563 23.6722 24.4984 23.1396 25.0381 23.0225C25.4596 22.931 25.8395 22.7882 26.1777 22.5986C26.3449 22.5049 26.5276 22.4645 26.7061 22.4717C27.4837 21.2301 28.0523 19.8435 28.3535 18.3594C28.4636 17.8184 28.9911 17.4693 29.5322 17.5791C30.0734 17.689 30.4233 18.2166 30.3135 18.7578C28.9728 25.362 23.1354 30.333 16.1348 30.333C8.14434 30.333 1.66707 23.8556 1.66699 15.8652C1.66699 8.86456 6.63786 3.02713 13.2422 1.68652ZM18.668 22.7197C18.8895 22.2139 19.4785 21.9836 19.9844 22.2051C20.7289 22.5312 21.4366 22.7681 22.0996 22.9219C22.6374 23.0467 22.9722 23.5832 22.8477 24.1211C22.7229 24.6591 22.1855 24.9949 21.6475 24.8701C20.8507 24.6853 20.0262 24.4066 19.1826 24.0371C18.6768 23.8155 18.4464 23.2256 18.668 22.7197ZM13.6543 19.3555C13.9716 18.9035 14.5959 18.794 15.0479 19.1113C15.3265 19.307 15.6126 19.5207 15.8877 19.7256L15.9189 19.749C16.2085 19.9647 16.4875 20.1722 16.7598 20.3623C17.2124 20.6785 17.3229 21.3012 17.0068 21.7539C16.6908 22.2066 16.068 22.3178 15.6152 22.002C15.3139 21.7916 15.0109 21.5658 14.7246 21.3525L14.7021 21.3359C14.4196 21.1254 14.1535 20.9281 13.8984 20.749C13.4465 20.4317 13.3371 19.8075 13.6543 19.3555ZM8.71191 16.3389C9.56781 16.434 10.5013 16.676 11.5312 17.1094C12.0403 17.3236 12.2796 17.9099 12.0654 18.4189C11.8512 18.9279 11.2648 19.1663 10.7559 18.9521C9.88074 18.5839 9.13365 18.3986 8.49121 18.3271C7.94231 18.2661 7.54642 17.7716 7.60742 17.2227C7.66843 16.6738 8.16311 16.278 8.71191 16.3389ZM22.667 1.66602C26.805 1.66619 30.333 5.05004 30.333 9.21191C30.333 11.3419 29.4189 13.1164 28.1758 14.5527C26.941 15.9793 25.3448 17.117 23.8711 18.0098L23.8564 18.0195L23.8408 18.0273C23.4819 18.2279 23.0776 18.333 22.667 18.333C22.2562 18.333 21.8512 18.228 21.4922 18.0273L21.4746 18.0176L21.457 18.0068C19.9906 17.1081 18.3952 15.9739 17.1602 14.5518C15.9158 13.1189 15 11.3486 15 9.21191C15 5.04993 18.5288 1.66602 22.667 1.66602ZM22.667 3.66602C19.5895 3.66602 17 6.19787 17 9.21191C17 10.7327 17.6411 12.0555 18.6699 13.2402C19.7027 14.4294 21.0885 15.4334 22.4805 16.2881C22.537 16.3171 22.6011 16.333 22.667 16.333C22.7334 16.333 22.7977 16.3166 22.8545 16.2871C24.2454 15.4429 25.6316 14.436 26.6641 13.2432C27.6929 12.0543 28.333 10.727 28.333 9.21191C28.333 6.19798 25.7443 3.66619 22.667 3.66602ZM22.667 6.33301C24.3237 6.33318 25.6669 7.6763 25.667 9.33301C25.667 10.9898 24.3237 12.3328 22.667 12.333C21.0101 12.333 19.667 10.9899 19.667 9.33301C19.667 7.67619 21.0102 6.33301 22.667 6.33301ZM22.667 8.33301C22.1147 8.33301 21.667 8.78076 21.667 9.33301C21.667 9.88529 22.1147 10.333 22.667 10.333C23.2191 10.3328 23.667 9.88518 23.667 9.33301C23.6669 8.78087 23.2191 8.33318 22.667 8.33301Z" fill="#095BA8"/>
</svg>
