<svg width="32" height="32" viewBox="0 0 32 32" fill="none" xmlns="http://www.w3.org/2000/svg">
<path d="M0 16C0 7.16344 7.16344 0 16 0C24.8366 0 32 7.16344 32 16C32 24.8366 24.8366 32 16 32C7.16344 32 0 24.8366 0 16Z" fill="#27AE60"/>
<path d="M11.1301 8.05664C11.8655 7.32564 13.0684 7.38779 13.7756 8.14648L13.9104 8.30762L14.9622 9.71094C15.512 10.4449 15.4545 11.4547 14.8196 12.0859L14.8176 12.0869L14.6194 12.2852L14.5256 12.3799L14.4905 12.5088C14.4473 12.6688 14.443 12.837 14.4778 12.999L14.4788 12.998C14.5645 13.4936 14.9416 14.2987 16.1409 15.4912C17.3457 16.6893 18.1568 17.0623 18.6545 17.1465V17.1475C18.6586 17.1483 18.6631 17.1477 18.6672 17.1484C18.6705 17.149 18.6737 17.1509 18.677 17.1514V17.1504C18.8314 17.1781 18.9899 17.1734 19.1418 17.1338L19.2727 17.0996L19.3684 17.0039L19.7083 16.666C20.2389 16.139 21.0434 16.0065 21.7336 16.3135L21.8704 16.3809L23.4622 17.2471C24.5557 17.8402 24.8 19.3012 23.9397 20.1572L22.7561 21.334C22.4795 21.6087 22.139 21.8244 21.7463 21.9033L21.5745 21.9287C20.1855 22.0582 16.8271 21.9095 13.2571 18.3604C10.267 15.3868 9.45577 12.7828 9.25903 11.293L9.36353 11.2871L9.33618 10.7881L9.30786 10.2891L9.26392 10.291C9.33988 9.99962 9.48988 9.73382 9.68579 9.50488L9.82251 9.35742L11.1301 8.05664ZM13.7112 8.45703C13.1154 7.66167 11.9751 7.56901 11.3059 8.23438L9.99731 9.53418C9.65162 9.87782 9.43429 10.3112 9.46118 10.7803C9.53473 12.072 10.1183 14.8868 13.4338 18.1836C16.9418 21.6709 20.2232 21.8032 21.552 21.6787L21.551 21.6777C21.9443 21.6419 22.2927 21.4428 22.5793 21.1582V21.1572L23.7629 19.9795L23.762 19.9785C24.4468 19.2976 24.3236 18.1437 23.5139 17.5723L23.343 17.4658L21.7512 16.6006L21.7502 16.5996C21.1248 16.2611 20.3683 16.363 19.885 16.8438L19.8596 16.8682L19.7708 16.7793L19.4163 17.1318L19.1604 17.3877C19.0275 17.4185 18.8546 17.4305 18.6399 17.3975C18.0685 17.3098 17.2035 16.901 15.9641 15.6689C14.8801 14.5906 14.4293 13.7986 14.2747 13.2363L14.2258 13.0088C14.1925 12.7951 14.2054 12.6227 14.2366 12.4902L14.8459 11.8809L14.7512 11.7861C15.1875 11.2449 15.2061 10.4555 14.762 9.86133V9.86035L13.7112 8.45703Z" fill="#737373" stroke="#FCFCFC"/>
</svg>
