<svg width="24" height="24" viewBox="0 0 24 24" fill="none" xmlns="http://www.w3.org/2000/svg">
<path d="M12 22.75C12.1989 22.75 12.3896 22.6709 12.5303 22.5303C12.6709 22.3896 12.75 22.1989 12.75 22L12.75 11.6777C13.6351 11.5115 14.5552 11.067 15.835 10.4473C15.8896 10.4208 15.945 10.3933 16.001 10.3662L18.9766 8.92676C19.4539 8.69583 19.8843 8.48462 20.25 8.28613V12C20.25 12.4142 20.5858 12.75 21 12.75C21.4142 12.75 21.75 12.4142 21.75 12V7C21.75 6.92919 21.7361 6.86182 21.7178 6.79688C21.7376 6.70324 21.75 6.60463 21.75 6.5C21.75 5.79795 21.2648 5.35137 20.8184 5.0498C20.3725 4.74874 19.7316 4.43853 18.9766 4.07324L16.001 2.63379C15.945 2.60669 15.8896 2.5792 15.835 2.55273C14.1932 1.7577 13.1437 1.25 12 1.25C10.8563 1.25 9.8068 1.7577 8.16504 2.55273C8.11037 2.57921 8.05503 2.60669 7.99902 2.63379L5.07813 4.04688C5.06001 4.05564 5.04142 4.06454 5.02344 4.07324C4.26844 4.43853 3.62745 4.74874 3.18164 5.0498C2.73518 5.35137 2.25 5.79795 2.25 6.5C2.25 6.60456 2.26147 6.7033 2.28125 6.79688C2.26296 6.86174 2.25 6.92928 2.25 7L2.25 17.1611C2.25 18.2815 3.06726 19.0272 4.07324 19.6309C5.09163 20.2419 6.59036 20.8742 8.4834 21.6738L8.54492 21.7002C8.59522 21.7214 8.64526 21.7429 8.69434 21.7637C10.1132 22.3635 11.028 22.75 12 22.75ZM5.73145 7.60254C4.90716 7.20368 4.36556 6.9401 4.02051 6.70703C3.87228 6.60689 3.80074 6.53868 3.76758 6.5C3.80074 6.46132 3.87228 6.39311 4.02051 6.29297C4.36556 6.0599 4.90716 5.79632 5.73145 5.39746L8.65234 3.9834C10.5202 3.07957 11.2424 2.75 12 2.75C12.7576 2.75 13.4798 3.07957 15.3477 3.9834L15.3516 3.98633L6.94336 8.19043L5.73145 7.60254ZM12 10.25C11.2424 10.25 10.5202 9.92043 8.65234 9.0166L8.64746 9.01563L17.0557 4.81152L18.2686 5.39746C19.0928 5.79632 19.6344 6.0599 19.9795 6.29297C20.1277 6.39311 20.1993 6.46132 20.2324 6.5C20.1993 6.53868 20.1277 6.60689 19.9795 6.70703C19.6344 6.9401 19.0928 7.20368 18.2686 7.60254L15.3477 9.0166C13.4798 9.92043 12.7576 10.25 12 10.25ZM11.25 21.1377C10.7711 21.006 10.148 20.7489 9.12891 20.3184C7.16009 19.4867 5.76087 18.8945 4.84473 18.3447C3.90516 17.7809 3.75 17.4232 3.75 17.1611L3.75 8.28613C4.11566 8.48462 4.54615 8.69583 5.02344 8.92676L7.99902 10.3662C8.05503 10.3933 8.11037 10.4208 8.16504 10.4473C9.44483 11.067 10.3649 11.5115 11.25 11.6777L11.25 21.1377ZM7.66504 13.6709C8.03538 13.8559 8.48559 13.7061 8.6709 13.3359C8.85611 12.9655 8.70628 12.5144 8.33594 12.3291L6.33594 11.3291C5.96545 11.1439 5.51434 11.2946 5.3291 11.665C5.14411 12.0355 5.29466 12.4857 5.66504 12.6709L7.66504 13.6709ZM16.7148 21.749C16.9994 21.7624 17.2668 21.6132 17.4053 21.3643L17.4062 21.3623L17.4121 21.3535L17.4336 21.3145C17.4533 21.2798 17.4835 21.228 17.5225 21.1611C17.6005 21.0273 17.7155 20.8337 17.8613 20.5977C18.1535 20.1246 18.5673 19.4851 19.0547 18.8174C19.5434 18.1478 20.0969 17.4621 20.668 16.8896C21.2488 16.3075 21.8014 15.8896 22.2813 15.6953C22.6652 15.5399 22.8507 15.1027 22.6953 14.7188C22.5399 14.3349 22.1026 14.1494 21.7188 14.3047C20.9634 14.6104 20.2416 15.1935 19.6064 15.8301C18.9618 16.4762 18.3575 17.2275 17.8428 17.9326C17.4283 18.5004 17.0655 19.0464 16.7803 19.4961C16.515 19.1141 16.2505 18.8434 16.001 18.6533C15.7719 18.4788 15.5603 18.3763 15.3828 18.3184C15.2949 18.2897 15.2173 18.2726 15.1523 18.2627C15.12 18.2578 15.0909 18.2548 15.0654 18.2529C15.0527 18.252 15.0402 18.2514 15.0293 18.251L15.0137 18.25H15C14.5859 18.25 14.2501 18.5859 14.25 19C14.25 19.3882 14.5449 19.7075 14.9229 19.7461C14.9438 19.7537 15.0037 19.7788 15.0928 19.8467C15.292 19.9985 15.6603 20.3816 16.0625 21.3008C16.1768 21.562 16.4301 21.7355 16.7148 21.749Z" fill="#00A0DC"/>
</svg>
