<svg width="24" height="24" viewBox="0 0 24 24" fill="none" xmlns="http://www.w3.org/2000/svg">
<path fill-rule="evenodd" clip-rule="evenodd" d="M11.6755 1.25H11.3249H11.3249C10.5794 1.24998 9.95503 1.24996 9.44574 1.31026C8.90564 1.3742 8.4198 1.51269 7.98229 1.8397C7.54707 2.16501 7.27137 2.59351 7.04579 3.09636C6.84333 3.54769 6.65709 4.11709 6.43793 4.79842C6.03855 4.8204 5.67016 4.85235 5.33103 4.89881C4.20972 5.05243 3.29737 5.37711 2.5785 6.10965C1.86155 6.84022 1.54553 7.76413 1.39567 8.89997C1.24997 10.0042 1.24999 11.4149 1.25 13.1947V13.1947V13.3053V13.3053C1.24999 15.0851 1.24997 16.4958 1.39567 17.6C1.54553 18.7359 1.86155 19.6598 2.5785 20.3904C3.29737 21.1229 4.20972 21.4476 5.33103 21.6012C6.41745 21.75 7.80415 21.75 9.54827 21.75H9.54833H11.0065C11.4207 21.75 11.7565 21.4142 11.7565 21C11.7565 20.5858 11.4207 20.25 11.0065 20.25H9.60546C7.79124 20.25 6.50744 20.2483 5.53463 20.1151C4.58487 19.985 4.04401 19.7421 3.64909 19.3397C3.25225 18.9353 3.01137 18.3784 2.88278 17.4038C2.75154 16.4091 2.75 15.0975 2.75 13.25C2.75 11.4025 2.75154 10.0909 2.88278 9.09618C3.01137 8.12159 3.25225 7.56467 3.64909 7.16028C4.04401 6.75785 4.58487 6.51505 5.53463 6.38493C6.50744 6.25165 7.79125 6.25 9.60546 6.25H13.4082C15.2224 6.25 16.5062 6.25165 17.479 6.38493C18.4288 6.51505 18.9696 6.75785 19.3646 7.16028C19.9865 7.79405 20.2039 8.77267 20.2502 11.0155C20.2587 11.4296 20.6013 11.7584 21.0155 11.7498C21.4296 11.7413 21.7584 11.3987 21.7498 10.9845C21.705 8.80913 21.5271 7.22233 20.4352 6.10965C19.7163 5.37711 18.8039 5.05243 17.6826 4.89881C17.3397 4.85183 16.9668 4.81968 16.5622 4.79768C16.3432 4.11668 16.157 3.54753 15.9546 3.09636C15.729 2.59351 15.4533 2.16501 15.0181 1.8397C14.5806 1.51269 14.0948 1.3742 13.5547 1.31026C13.0454 1.24996 12.421 1.24998 11.6755 1.25H11.6755ZM14.9709 4.75428C14.8263 4.31583 14.7073 3.98059 14.586 3.71031C14.4168 3.33303 14.2741 3.1563 14.1201 3.04117C13.9683 2.92775 13.7682 2.84602 13.3783 2.79985C12.9675 2.75122 12.4324 2.75 11.6318 2.75H11.3686C10.568 2.75 10.0329 2.75122 9.6221 2.79985C9.2322 2.84602 9.03207 2.92775 8.88033 3.04117C8.72631 3.1563 8.58364 3.33303 8.41439 3.71031C8.29313 3.98062 8.17408 4.3159 8.02944 4.7544C8.50262 4.74999 9.00836 4.75 9.54836 4.75H13.4653C14.0002 4.75 14.5016 4.74999 14.9709 4.75428ZM12.25 17.5C12.25 14.6005 14.6005 12.25 17.5 12.25C20.3995 12.25 22.75 14.6005 22.75 17.5C22.75 20.3995 20.3995 22.75 17.5 22.75C14.6005 22.75 12.25 20.3995 12.25 17.5ZM17.5 13.75C15.4289 13.75 13.75 15.4289 13.75 17.5C13.75 19.5711 15.4289 21.25 17.5 21.25C19.5711 21.25 21.25 19.5711 21.25 17.5C21.25 15.4289 19.5711 13.75 17.5 13.75ZM17.5 14.95C17.9142 14.95 18.25 15.2858 18.25 15.7V17.5486L19.266 18.226C19.6107 18.4557 19.7038 18.9214 19.474 19.266C19.2443 19.6107 18.7786 19.7038 18.434 19.474L17.084 18.574C16.8753 18.4349 16.75 18.2008 16.75 17.95V15.7C16.75 15.2858 17.0858 14.95 17.5 14.95Z" fill="#737373"/>
</svg>
