<svg width="16" height="16" viewBox="0 0 16 16" fill="none" xmlns="http://www.w3.org/2000/svg">
<path d="M7.99992 4.33331C8.44195 4.33331 8.86587 4.50891 9.17843 4.82147C9.49099 5.13403 9.66658 5.55795 9.66658 5.99998C9.66658 6.21885 9.62348 6.43558 9.53972 6.63779C9.45596 6.83999 9.33319 7.02373 9.17843 7.17849C9.02367 7.33325 8.83993 7.45602 8.63772 7.53978C8.43551 7.62354 8.21879 7.66665 7.99992 7.66665C7.55789 7.66665 7.13397 7.49105 6.82141 7.17849C6.50885 6.86593 6.33325 6.44201 6.33325 5.99998C6.33325 5.55795 6.50885 5.13403 6.82141 4.82147C7.13397 4.50891 7.55789 4.33331 7.99992 4.33331ZM7.99992 1.33331C9.2376 1.33331 10.4246 1.82498 11.2997 2.70015C12.1749 3.57532 12.6666 4.7623 12.6666 5.99998C12.6666 9.49998 7.99992 14.6666 7.99992 14.6666C7.99992 14.6666 3.33325 9.49998 3.33325 5.99998C3.33325 4.7623 3.82492 3.57532 4.70009 2.70015C5.57526 1.82498 6.76224 1.33331 7.99992 1.33331ZM7.99992 2.66665C7.11586 2.66665 6.26802 3.01784 5.6429 3.64296C5.01777 4.26808 4.66659 5.11592 4.66659 5.99998C4.66659 6.66665 4.66659 7.99998 7.99992 12.4733C11.3333 7.99998 11.3333 6.66665 11.3333 5.99998C11.3333 5.11592 10.9821 4.26808 10.3569 3.64296C9.73182 3.01784 8.88397 2.66665 7.99992 2.66665Z" fill="#BDBDBD"/>
</svg>
